<svg width="3670" height="292" viewBox="0 0 3670 292" fill="none" xmlns="http://www.w3.org/2000/svg">
<path d="M151.902 0.00564575L0 291.578H65.3655C96.9782 291.578 125.953 273.991 140.565 245.962L268.708 0.00564575H151.902Z" fill="url(#paint0_linear_517_1278)"/>
<path d="M551.112 0.00564575L399.21 291.578H464.576C496.178 291.578 525.163 273.991 539.765 245.962L667.908 0.00564575H551.112Z" fill="url(#paint1_linear_517_1278)"/>
<path d="M687.218 0.00596619L644.159 82.6484L804.014 0.00596619H687.218Z" fill="url(#paint2_linear_517_1278)"/>
<path d="M535.306 291.578H652.112L629.706 110.398L535.306 291.578Z" fill="url(#paint3_linear_517_1278)"/>
<path d="M403.062 0.00564575H286.266L134.344 291.578H251.15L327.106 145.792C406.327 145.792 478.969 101.719 515.588 31.4582L531.972 0.00564575H403.062Z" fill="url(#paint4_linear_517_1278)"/>
<path d="M910.458 278.878H839.539V7.15253H910.458V278.878Z" fill="#4E5154"/>
<path d="M1173.99 7.16025H1246.61V278.886H1175.69V143.182L1120.12 278.886H1069.33L1013.75 143.182V278.886H942.834V7.16025H1015.47L1094.56 200.464L1173.99 7.16025Z" fill="#4E5154"/>
<path d="M1449.42 89.4032C1449.42 83.0331 1447.31 77.5189 1443.11 72.8508C1438.9 68.2026 1433.28 65.8735 1426.24 65.8735H1354.3V131.675L1419.09 119.741C1430.67 117.69 1438.62 113.948 1442.94 108.484C1447.26 103.039 1449.42 96.6691 1449.42 89.4032ZM1283.38 7.22861H1435.79C1447.59 7.22861 1458.67 8.83109 1469.02 12.0062C1479.35 15.2012 1488.28 20.0186 1495.78 26.4982C1503.27 32.9778 1509.2 41.3287 1513.52 51.5507C1517.83 61.7827 1520 73.8262 1520 87.6912C1520 101.327 1518.29 112.983 1514.88 122.637C1511.46 132.292 1506.35 140.484 1499.54 147.182C1492.71 153.881 1484.24 159.455 1474.14 163.884C1464.02 168.323 1452.37 172.016 1439.18 174.972L1354.3 193.714V278.954H1283.38V7.22861Z" fill="#4E5154"/>
<path d="M1613.44 162.628L1661.17 149.321L1639.69 85.5795L1613.44 162.628ZM1502.99 278.883L1595.02 7.15732H1684.35L1776.41 278.883H1705.49L1679.58 202.849L1591.63 227.066L1573.89 278.883H1502.99Z" fill="#4E5154"/>
<path d="M1774.7 142.856C1774.7 121.945 1778.5 102.735 1786.12 85.2267C1793.74 67.7388 1804.19 52.6794 1817.49 40.0686C1830.78 27.4478 1846.52 17.6139 1864.7 10.5669C1882.88 3.52991 1902.44 0.00646973 1923.35 0.00646973C1951.53 0.00646973 1975.84 5.74951 1996.3 17.2257C2016.75 28.7019 2035.16 45.6822 2051.53 68.1867L2004.82 107.393C1996.41 92.4031 1985.79 80.4591 1972.95 71.5907C1960.11 62.7323 1944.14 58.303 1925.04 58.303C1913.22 58.303 1902.44 60.4629 1892.66 64.7826C1882.88 69.1024 1874.54 75.0744 1867.6 82.6787C1860.66 90.3029 1855.27 99.2709 1851.41 109.602C1847.54 119.954 1845.6 131.042 1845.6 142.856C1845.6 154.671 1847.48 165.699 1851.24 175.921C1854.98 186.143 1860.38 195.062 1867.43 202.676C1874.48 210.3 1882.95 216.262 1892.84 220.582C1902.71 224.902 1913.67 227.061 1925.73 227.061C1935.5 227.061 1944.31 225.917 1952.15 223.647C1960 221.378 1967.15 218.074 1973.63 213.754C1980.1 209.454 1986.02 204.209 1991.35 198.067C1996.7 191.936 2001.64 185.019 2006.18 177.285L2051.86 217.855C2036.41 239.443 2018.41 256.155 1997.84 267.97C1977.27 279.774 1952.43 285.687 1923.35 285.687C1902.44 285.687 1882.88 282.173 1864.7 275.126C1846.52 268.079 1830.78 258.245 1817.49 245.634C1804.19 233.024 1793.74 217.964 1786.12 200.466C1778.5 182.968 1774.7 163.758 1774.7 142.856Z" fill="#4E5154"/>
<path d="M2211.75 65.8022V278.883H2140.85V65.8022H2054.58V7.15729H2298.01V65.8022H2211.75Z" fill="#4E5154"/>
<path d="M2512.81 278.881L2430.3 163.641V278.881H2359.38V7.15536H2430.3V109.436L2512.81 7.15536H2590.88L2485.88 137.394L2590.88 278.881H2512.81Z" fill="#4E5154"/>
<path d="M2653.25 142.512C2653.25 155.003 2655.13 166.43 2658.88 176.761C2662.63 187.113 2667.92 196.041 2674.73 203.536C2681.56 211.031 2689.79 216.893 2699.46 221.083C2709.11 225.294 2719.85 227.394 2731.67 227.394C2743.49 227.394 2754.23 225.294 2763.89 221.083C2773.55 216.893 2781.78 211.031 2788.61 203.536C2795.42 196.041 2800.71 187.113 2804.45 176.761C2808.21 166.43 2810.09 155.003 2810.09 142.512C2810.09 130.468 2808.21 119.331 2804.45 109.109C2800.71 98.8667 2795.42 90.0082 2788.61 82.5034C2781.78 75.0086 2773.55 69.1561 2763.89 64.9557C2754.23 60.7455 2743.49 58.6453 2731.67 58.6453C2719.85 58.6453 2709.11 60.7455 2699.46 64.9557C2689.79 69.1561 2681.56 75.0086 2674.73 82.5034C2667.92 90.0082 2662.63 98.8667 2658.88 109.109C2655.13 119.331 2653.25 130.468 2653.25 142.512ZM2582.35 142.512C2582.35 121.829 2586.15 102.729 2593.76 85.2307C2601.38 67.7427 2611.84 52.6833 2625.13 40.0625C2638.43 27.4516 2654.16 17.6178 2672.35 10.5708C2690.53 3.5239 2710.3 0.000427246 2731.67 0.000427246C2753.25 0.000427246 2773.14 3.5239 2791.33 10.5708C2809.51 17.6178 2825.26 27.4516 2838.55 40.0625C2851.84 52.6833 2862.19 67.7427 2869.57 85.2307C2876.95 102.729 2880.66 121.829 2880.66 142.512C2880.66 163.424 2876.95 182.624 2869.57 200.122C2862.19 217.62 2851.84 232.749 2838.55 245.459C2825.26 258.189 2809.51 268.083 2791.33 275.12C2773.14 282.167 2753.25 285.69 2731.67 285.69C2710.3 285.69 2690.53 282.167 2672.35 275.12C2654.16 268.083 2638.43 258.189 2625.13 245.459C2611.84 232.749 2601.38 217.62 2593.76 200.122C2586.15 182.624 2582.35 163.424 2582.35 142.512Z" fill="#4E5154"/>
<path d="M3072.27 89.3329C3072.27 82.9627 3070.16 77.4486 3065.96 72.7805C3061.75 68.1323 3056.12 65.8032 3049.09 65.8032H2977.15V131.605L3041.93 119.671C3053.51 117.62 3061.47 113.878 3065.79 108.413C3070.11 102.969 3072.27 96.5988 3072.27 89.3329ZM2906.23 7.15829H3058.63C3070.44 7.15829 3081.52 8.76077 3091.87 11.9359C3102.2 15.1309 3111.13 19.9483 3118.62 26.4279C3126.13 32.9075 3132.04 41.2583 3136.36 51.4804C3140.67 61.7124 3142.84 73.7559 3142.84 87.6209C3142.84 105.806 3139.77 120.517 3133.63 131.774C3127.5 143.031 3118.4 152.059 3106.35 158.867L3158.17 278.884H3084.2L3041.93 179.331L2977.15 193.644V278.884H2906.23V7.15829Z" fill="#4E5154"/>
<path d="M3378.41 110.81V169.435H3244.43V220.585H3388.3V278.882H3173.51V7.15634H3384.89V65.8013H3244.43V110.81H3378.41Z" fill="#4E5154"/>
<path d="M3506.92 162.628L3554.66 149.321L3533.18 85.5795L3506.92 162.628ZM3396.48 278.883L3488.51 7.15732H3577.84L3669.9 278.883H3598.98L3573.07 202.849L3485.12 227.066L3467.38 278.883H3396.48Z" fill="#4E5154"/>
<defs>
<linearGradient id="paint0_linear_517_1278" x1="78.3628" y1="-54.9931" x2="199.458" y2="379.295" gradientUnits="userSpaceOnUse">
<stop stop-color="#008DC7"/>
<stop offset="0.275773" stop-color="#008DC7"/>
<stop offset="0.760309" stop-color="#825CA3"/>
<stop offset="1" stop-color="#825CA3"/>
</linearGradient>
<linearGradient id="paint1_linear_517_1278" x1="448.768" y1="-158.276" x2="569.864" y2="276.012" gradientUnits="userSpaceOnUse">
<stop stop-color="#008DC7"/>
<stop offset="0.275773" stop-color="#008DC7"/>
<stop offset="0.760309" stop-color="#825CA3"/>
<stop offset="1" stop-color="#825CA3"/>
</linearGradient>
<linearGradient id="paint2_linear_517_1278" x1="652.58" y1="-215.106" x2="773.675" y2="219.182" gradientUnits="userSpaceOnUse">
<stop stop-color="#008DC7"/>
<stop offset="0.275773" stop-color="#008DC7"/>
<stop offset="0.760309" stop-color="#825CA3"/>
<stop offset="1" stop-color="#825CA3"/>
</linearGradient>
<linearGradient id="paint3_linear_517_1278" x1="479.901" y1="-166.958" x2="600.997" y2="267.33" gradientUnits="userSpaceOnUse">
<stop stop-color="#008DC7"/>
<stop offset="0.275773" stop-color="#008DC7"/>
<stop offset="0.760309" stop-color="#825CA3"/>
<stop offset="1" stop-color="#825CA3"/>
</linearGradient>
<linearGradient id="paint4_linear_517_1278" x1="262.83" y1="-106.429" x2="383.925" y2="327.86" gradientUnits="userSpaceOnUse">
<stop stop-color="#008DC7"/>
<stop offset="0.275773" stop-color="#008DC7"/>
<stop offset="0.760309" stop-color="#825CA3"/>
<stop offset="1" stop-color="#825CA3"/>
</linearGradient>
</defs>
</svg>
