<svg width="109" height="34" viewBox="0 0 109 34" fill="none" xmlns="http://www.w3.org/2000/svg">
<path d="M28.7816 2.54006C28.7683 2.51355 28.7373 2.49587 28.7063 2.50471C28.436 2.61961 28.1657 2.71683 27.8866 2.81847C27.1202 3.1013 26.3227 3.28691 25.5252 3.47251C24.6126 3.6758 23.6822 3.82163 22.774 4.04701C21.9898 4.23703 21.21 4.46683 20.4569 4.76734C19.8898 4.9883 19.3316 5.22693 18.8088 5.53186C18.1885 5.87214 17.6879 6.38034 17.2006 6.88413C16.7531 7.35256 16.3012 7.821 15.9069 8.33804C15.6854 8.62971 15.4993 8.94789 15.3221 9.26608C15.6012 8.21431 15.9911 7.1537 16.7044 6.31405C16.7575 6.24777 16.6955 6.16822 16.6202 6.20358C16.4385 6.29196 16.2702 6.40686 16.0974 6.51292C14.7771 7.4056 13.5987 8.51481 12.5841 9.73893C12.0879 10.3444 11.6094 10.963 11.2151 11.6392C10.7588 12.4302 10.4132 13.2831 10.1651 14.1625C10.1385 13.6411 10.1828 13.1196 10.2537 12.6026C10.267 12.5098 10.2803 12.4214 10.2847 12.3286C10.2847 12.2667 10.3025 12.1783 10.2404 12.143C10.1961 12.1209 10.1518 12.143 10.1208 12.1783C10.0809 12.2181 10.0499 12.2623 10.0145 12.3065C9.94359 12.3993 9.87271 12.4965 9.80625 12.5937C9.58473 12.9075 9.38536 13.2389 9.21258 13.5836C8.78726 14.4542 8.39739 15.3336 8.00309 16.2175C7.60435 17.1013 7.23663 18.0028 6.85119 18.8911C6.48347 19.7307 6.0803 20.5571 5.66385 21.3747C5.4379 21.8122 5.20752 22.2497 4.93726 22.6651C4.82207 22.8418 4.70245 23.0142 4.5784 23.1821C4.59612 23.1468 4.61384 23.1158 4.63157 23.0805C4.99486 22.369 5.24296 21.6089 5.46891 20.8444C5.65498 20.3538 5.84106 19.8633 6.04929 19.386C6.29296 18.8425 6.51005 18.2901 6.71828 17.7332C7.13473 16.6815 7.63979 15.6739 8.21574 14.6973C8.5879 14.0653 8.98663 13.4466 9.34992 12.8058C9.69106 12.2048 9.96131 11.5685 10.2714 10.9542C10.5018 10.4946 10.7366 10.035 10.936 9.56216C10.9936 9.42958 11.0512 9.29259 11.1044 9.15559C11.1265 9.08931 11.1531 9.0186 11.1664 8.94789C11.1664 8.92138 11.1708 8.89044 11.1531 8.86393C11.1132 8.80206 11.0335 8.82416 10.9847 8.86393C10.843 8.96999 10.71 9.08047 10.5727 9.19537C10.1297 9.571 9.66891 9.92453 9.19486 10.2604C10.2094 9.03186 11.2904 7.77681 11.7778 6.23009C11.8132 6.09751 11.9107 5.76607 11.8132 5.65559C11.7468 5.59815 11.6714 5.67769 11.6316 5.7263C11.2195 6.23893 10.7854 6.73388 10.3025 7.18022C10.4885 6.88855 10.6657 6.58804 10.8252 6.2787C11.0911 5.7484 11.3525 5.21368 11.5695 4.66128C11.8265 3.98514 12.0214 3.29133 12.2252 2.60193C12.4335 1.85067 12.6195 1.09057 12.8455 0.343726C12.8676 0.273019 12.8898 0.202312 12.9031 0.127186C12.9031 0.10509 12.9119 0.0785749 12.9031 0.056479C12.8898 0.0167063 12.8411 -0.00980889 12.8012 0.00344869C12.7657 0.0122871 12.7303 0.034383 12.6993 0.0608982C12.2474 0.485141 11.8442 0.957994 11.41 1.39549C11.0911 1.72251 10.7676 2.05395 10.4619 2.39423C9.84612 3.09246 9.29676 3.85257 8.86258 4.67453C8.46828 5.42138 8.1803 6.23009 8.00309 7.05648C7.76384 8.13476 7.6841 9.23956 7.53347 10.3311C7.36068 9.85825 7.25878 9.35888 7.23663 8.85067C7.22777 8.68274 7.21891 8.50597 7.21005 8.32479C7.21005 8.24082 7.21005 8.05964 7.08157 8.09941C7.04169 8.1215 7.01954 8.1657 6.99739 8.20989C6.95752 8.28943 6.92207 8.3734 6.88663 8.45736C6.77587 8.71368 6.65182 8.96115 6.53663 9.21304C6.20878 9.92011 5.92524 10.6537 5.77903 11.4182C5.65055 12.0457 5.5841 12.6865 5.5841 13.3229C5.5841 14.2156 5.72144 15.095 5.71701 15.9921C5.47334 15.5988 5.22524 15.201 5.12334 14.7415C5.07017 14.5249 5.0303 14.3084 4.99486 14.0918C4.986 14.03 4.97271 13.9637 4.96384 13.9018C4.95498 13.8576 4.95498 13.8002 4.91954 13.7692C4.83979 13.7074 4.78663 13.8134 4.76891 13.8797C4.61828 14.357 4.54296 14.8608 4.52524 15.3646C4.50309 15.8728 4.55182 16.381 4.60055 16.8892C4.64486 17.3488 4.69359 17.8084 4.7246 18.2724C4.70245 18.4403 4.69359 18.6082 4.6803 18.7762C4.62714 19.6026 4.5341 20.429 4.3746 21.2421C4.26828 21.8961 4.13093 22.5413 3.90055 23.1689C3.76764 23.6152 3.59486 24.0483 3.37777 24.4593C3.34233 24.5167 3.31131 24.5786 3.2803 24.636C2.85055 25.4005 2.45625 26.1827 2.02207 26.9428C1.76068 27.3892 1.50815 27.8444 1.27334 28.3084C1.10055 28.6089 0.94106 28.9138 0.803719 29.2276C0.684098 29.4927 0.568908 29.7623 0.462579 30.0319C0.422706 30.1468 0.307516 30.3766 0.369541 30.4915C0.462579 30.5754 0.537896 30.4649 0.595491 30.3456C0.608782 30.3324 0.622073 30.3191 0.630934 30.3058C0.666377 30.2572 0.697389 30.2086 0.723972 30.1556C0.794858 30.0363 0.865744 29.9214 0.9322 29.8065C1.2246 29.2983 1.50815 28.7856 1.79612 28.273C2.22587 27.4776 2.69549 26.7042 3.16954 25.9308C3.24929 25.8027 3.3246 25.6745 3.40435 25.542C3.50182 25.4005 3.59929 25.2635 3.70119 25.1221C3.88283 24.8747 4.07777 24.636 4.29043 24.4151C4.55182 24.1278 4.87967 23.8494 5.18536 23.6064C5.6284 23.2484 6.02714 22.8418 6.41701 22.4308C7.32524 21.4454 8.1803 20.4113 9.06638 19.4037C9.65562 18.6966 10.2892 18.0161 10.967 17.3974C11.4676 16.9776 11.986 16.5754 12.5132 16.1909C13.355 15.5899 14.2411 15.0552 15.0784 14.4454C16.0664 13.725 17.0322 12.9738 17.9183 12.1297C17.9449 12.0988 17.9759 12.0634 17.9581 12.0192C17.9404 11.9618 17.8695 11.9706 17.8208 11.9839C17.6214 12.0369 17.4309 12.1165 17.236 12.1651C17.0366 12.2093 16.8328 12.249 16.6335 12.2844C16.0885 12.3904 15.5303 12.4346 14.9765 12.4391C15.2911 12.3197 15.61 12.2048 15.929 12.0988C16.7221 11.8601 17.524 11.6569 18.2993 11.3652C19.6771 10.8923 20.8822 10.0439 21.9854 9.1114C22.2556 8.88602 22.5303 8.66065 22.7784 8.40875C22.8227 8.35572 22.8892 8.30711 22.898 8.23198C22.898 8.1436 22.7917 8.1436 22.7252 8.16128C22.105 8.29385 21.4803 8.42201 20.8512 8.4883C20.4347 8.52807 20.0006 8.559 19.5841 8.48388C20.067 8.33804 20.5544 8.20989 21.0506 8.10825C21.5113 8.01544 21.9765 7.92706 22.424 7.79006C23.1195 7.58678 23.7442 7.18905 24.2759 6.70294C24.5949 6.39802 24.8917 6.071 25.1841 5.73956C25.4942 5.38602 25.7733 5.00597 26.1012 4.6657C26.5309 4.21494 27.0006 3.80395 27.5012 3.43716C27.8733 3.14549 28.2721 2.89802 28.6841 2.6638C28.7151 2.64613 28.7461 2.63729 28.7771 2.61961C28.8037 2.60193 28.8126 2.571 28.7993 2.54006H28.7816ZM4.56954 23.5356C4.56954 23.5356 4.56954 23.5356 4.56068 23.5356H4.56511H4.56954ZM5.6284 18.785C5.96954 17.6714 6.29739 16.5533 6.65182 15.4441C6.9841 14.3084 7.31638 13.1726 7.66638 12.0457C8.05625 10.7112 8.36638 9.35446 8.7784 8.02428C9.07081 7.08741 9.39865 6.15938 9.76638 5.24903C10.0987 4.42706 10.4708 3.61835 10.9759 2.88476C10.5638 3.8614 10.1385 4.82921 9.77967 5.82352C9.4341 6.69411 9.14169 7.58236 8.88916 8.48388C8.27334 10.4769 7.90119 12.5363 7.30752 14.5338C7.05498 15.4176 6.77144 16.2926 6.46574 17.1632C6.24865 17.7863 5.99169 18.4094 5.77903 19.0325C5.30498 20.4157 4.86638 21.8122 4.32587 23.1733C4.31701 23.1821 4.30815 23.1909 4.29929 23.1998C4.28157 23.1954 4.26384 23.1998 4.25055 23.2042C4.34359 22.9125 4.4322 22.6165 4.50752 22.3204C4.86638 21.136 5.26068 19.9649 5.6284 18.785ZM18.9461 7.92264C18.4322 8.27618 17.9183 8.62971 17.4309 9.01418C16.6202 9.65938 15.8316 10.3267 15.0474 11.0028C14.5911 11.4094 14.179 11.8646 13.7493 12.3021C13.324 12.744 12.8942 13.1771 12.4911 13.6367C11.955 14.2332 11.4056 14.821 10.8917 15.4397C10.4398 15.97 10.0278 16.5356 9.62017 17.1013C9.31891 17.5034 9.01321 17.9056 8.72967 18.321C8.39296 18.8027 8.04296 19.2711 7.70625 19.7528C7.36954 20.2389 7.03726 20.725 6.70941 21.2156C6.50119 21.5249 6.29296 21.8387 6.04929 22.1259C5.76131 22.4662 5.46448 22.8242 5.13663 23.1379C5.01258 23.2484 4.89296 23.3589 4.77334 23.4738C4.77334 23.4738 4.77334 23.4738 4.76891 23.4738C4.71131 23.4605 4.71131 23.4075 4.7246 23.3633C4.95941 23.1026 5.19422 22.8463 5.4246 22.5811C5.70372 22.2585 5.95625 21.9138 6.19106 21.5603C7.44043 19.7396 8.70309 17.9233 10.0455 16.1644C10.5461 15.5148 11.0645 14.874 11.6227 14.273C12.5841 13.2566 13.5765 12.2755 14.5689 11.2856C15.8493 10.0129 17.2138 8.81974 18.698 7.79006C19.8809 6.99461 21.1392 6.31405 22.4373 5.7263C21.2233 6.37592 20.0892 7.16696 18.9461 7.92706V7.92264Z" fill="#5534DA"/>
<path d="M20.0364 30.2837C20.0009 30.3588 19.9522 30.4251 19.899 30.487C19.3408 31.0659 18.5168 31.3664 17.737 31.5211C16.9484 31.6846 16.1376 31.5343 15.3667 31.362C16.1332 30.73 16.9927 29.992 17.1655 28.9623C17.3338 27.7294 16.1686 26.9295 15.0478 26.8765C11.2997 26.7528 7.91485 28.7812 4.73827 30.5356C3.5332 31.194 2.1908 32.0381 0.759787 31.7067C0.56042 31.6492 0.356622 31.5211 0.294597 31.3089C0.299027 31.2515 0.272445 31.1852 0.21485 31.1587C-0.228188 31.0703 0.0863689 31.6934 0.290166 31.8039C2.04903 32.807 4.4946 30.9466 6.04966 30.1423C7.65346 29.2673 9.31042 28.3834 11.056 27.8134C12.5047 27.3847 14.2193 26.9074 15.7123 27.3096C16.4743 27.5305 17.068 28.326 16.8243 29.1214C16.5187 30.0406 15.7256 30.6903 14.9857 31.2647C13.8205 30.9863 12.6111 30.6814 11.406 30.8538C10.7414 30.9731 9.97498 31.2073 9.6427 31.8437C9.12434 32.8866 10.4224 33.0899 11.1756 33.0678C12.5889 33.0236 13.9357 32.4447 15.0522 31.5918C16.3193 31.9232 17.5731 32.0469 18.8092 31.5255C19.3674 31.2692 20.0009 30.9863 20.3022 30.4163C20.3952 30.2439 20.1205 30.1025 20.0319 30.2748L20.0364 30.2837ZM11.1357 32.7717C10.7281 32.7408 10.0104 32.7982 9.83764 32.343C9.81105 31.7685 10.449 31.4327 10.9275 31.2868C12.1547 30.9156 13.4484 31.225 14.6623 31.5078C13.6389 32.2546 12.4117 32.7363 11.1357 32.7717Z" fill="#5534DA"/>
<path d="M33.8371 23.0412V10.4063H28.8066V7.46996H42.5056V10.4063H37.4752V23.0412H33.8371Z" fill="#5534DA"/>
<path d="M50.5025 23.0412V20.7055L50.2779 20.1939V16.0119C50.2779 15.2704 50.0459 14.6921 49.5817 14.2768C49.1326 13.8616 48.4364 13.654 47.4932 13.654C46.8494 13.654 46.2131 13.7578 45.5843 13.9654C44.9705 14.1582 44.4465 14.4251 44.0123 14.7662L42.7547 12.3415C43.4135 11.8818 44.207 11.5259 45.1352 11.2738C46.0634 11.0217 47.0066 10.8956 47.9648 10.8956C49.8063 10.8956 51.2361 11.3257 52.2542 12.1858C53.2722 13.046 53.7812 14.3881 53.7812 16.2121V23.0412H50.5025ZM46.8195 23.2192C45.8763 23.2192 45.0678 23.0635 44.3941 22.7521C43.7204 22.4258 43.2039 21.9883 42.8445 21.4396C42.4852 20.8909 42.3056 20.2755 42.3056 19.5933C42.3056 18.8815 42.4777 18.2586 42.8221 17.7248C43.1814 17.1909 43.7428 16.7757 44.5064 16.4791C45.2699 16.1676 46.2655 16.0119 47.4932 16.0119H50.7046V18.0362H47.875C47.0515 18.0362 46.4826 18.1697 46.1682 18.4366C45.8688 18.7035 45.7191 19.0372 45.7191 19.4376C45.7191 19.8825 45.8912 20.2384 46.2356 20.5053C46.5949 20.7575 47.0815 20.8835 47.6953 20.8835C48.2792 20.8835 48.8032 20.75 49.2673 20.4831C49.7314 20.2013 50.0683 19.7935 50.2779 19.2596L50.8169 20.8613C50.5624 21.6324 50.0982 22.2182 49.4245 22.6186C48.7508 23.019 47.8825 23.2192 46.8195 23.2192Z" fill="#5534DA"/>
<path d="M60.5063 23.2192C59.4733 23.2192 58.4777 23.1006 57.5195 22.8633C56.5763 22.6112 55.8277 22.2997 55.2738 21.929L56.4415 19.4376C56.9955 19.7787 57.6468 20.0605 58.3953 20.2829C59.1589 20.4905 59.9075 20.5943 60.6411 20.5943C61.4495 20.5943 62.0184 20.4979 62.3478 20.3051C62.6922 20.1124 62.8643 19.8454 62.8643 19.5043C62.8643 19.2226 62.7296 19.015 62.4601 18.8815C62.2056 18.7332 61.8612 18.622 61.4271 18.5478C60.9929 18.4737 60.5138 18.3995 59.9898 18.3254C59.4808 18.2512 58.9642 18.1548 58.4402 18.0362C57.9162 17.9027 57.4372 17.7099 57.003 17.4578C56.5688 17.2057 56.217 16.8646 55.9475 16.4346C55.693 16.0045 55.5657 15.4484 55.5657 14.7662C55.5657 14.0099 55.7828 13.3426 56.217 12.7642C56.6661 12.1858 57.3099 11.7335 58.1483 11.4073C58.9867 11.0662 59.9898 10.8956 61.1576 10.8956C61.981 10.8956 62.8194 10.9846 63.6728 11.1626C64.5262 11.3405 65.2373 11.6001 65.8062 11.9411L64.6385 14.4103C64.0546 14.0692 63.4632 13.8394 62.8643 13.7207C62.2804 13.5872 61.7115 13.5205 61.1576 13.5205C60.3791 13.5205 59.8101 13.6243 59.4508 13.8319C59.0915 14.0396 58.9118 14.3065 58.9118 14.6327C58.9118 14.9293 59.0391 15.1518 59.2936 15.3001C59.5631 15.4484 59.9149 15.567 60.3491 15.656C60.7833 15.745 61.2549 15.8265 61.7639 15.9007C62.2879 15.96 62.8119 16.0564 63.3359 16.1899C63.8599 16.3233 64.3315 16.5161 64.7507 16.7682C65.1849 17.0055 65.5367 17.3392 65.8062 17.7692C66.0757 18.1845 66.2105 18.7332 66.2105 19.4154C66.2105 20.1568 65.9859 20.8168 65.5367 21.3951C65.0876 21.9587 64.4363 22.4036 63.583 22.7298C62.7446 23.0561 61.719 23.2192 60.5063 23.2192Z" fill="#5534DA"/>
<path d="M70.7586 20.5943L70.8484 16.3678L76.4852 11.0736H80.6622L75.25 16.5235L73.431 17.9917L70.7586 20.5943ZM67.8616 23.0412V6.53568H71.3649V23.0412H67.8616ZM76.867 23.0412L72.7797 18.0139L74.9806 15.3223L81.1114 23.0412H76.867Z" fill="#5534DA"/>
<path d="M82.1765 23.0412V11.0736H85.6799V23.0412H82.1765ZM83.9282 9.40524C83.2844 9.40524 82.7604 9.21987 82.3562 8.84913C81.9519 8.47838 81.7498 8.01866 81.7498 7.46996C81.7498 6.92125 81.9519 6.46153 82.3562 6.09079C82.7604 5.72004 83.2844 5.53467 83.9282 5.53467C84.572 5.53467 85.096 5.71263 85.5002 6.06854C85.9044 6.40963 86.1065 6.85452 86.1065 7.40322C86.1065 7.98158 85.9044 8.46355 85.5002 8.84913C85.1109 9.21987 84.5869 9.40524 83.9282 9.40524Z" fill="#5534DA"/>
<path d="M88.8475 23.0412V10.8067C88.8475 9.45715 89.2518 8.38199 90.0602 7.58118C90.8687 6.76554 92.0215 6.35772 93.5187 6.35772C94.0277 6.35772 94.5143 6.40963 94.9784 6.51343C95.4575 6.61724 95.8617 6.78037 96.1911 7.00282L95.2703 9.51647C95.0757 9.383 94.8586 9.27919 94.6191 9.20504C94.3795 9.13089 94.125 9.09382 93.8555 9.09382C93.3465 9.09382 92.9498 9.24212 92.6653 9.53871C92.3958 9.82048 92.2611 10.2505 92.2611 10.8289V11.9411L92.3509 13.4315V23.0412H88.8475ZM86.9836 14.0099V11.3405H95.3602V14.0099H86.9836Z" fill="#5534DA"/>
<path d="M98.3415 27.5347C97.7127 27.5347 97.0914 27.4383 96.4776 27.2455C95.8637 27.0527 95.3622 26.7858 94.9729 26.4447L96.253 23.9755C96.5225 24.2128 96.8294 24.3982 97.1738 24.5316C97.5331 24.6651 97.8849 24.7318 98.2292 24.7318C98.7233 24.7318 99.1126 24.6132 99.397 24.3759C99.6965 24.1535 99.9659 23.7753 100.205 23.2414L100.834 21.7733L101.104 21.3951L105.438 11.0736H108.807L103.35 23.7753C102.96 24.7393 102.511 25.4956 102.002 26.0443C101.508 26.593 100.954 26.9785 100.34 27.201C99.7414 27.4234 99.0751 27.5347 98.3415 27.5347ZM100.408 23.5084L95.0179 11.0736H98.6335L102.811 21.0837L100.408 23.5084Z" fill="#5534DA"/>
</svg>
